<svg id="Calque_2" data-name="Calque 2" xmlns="http://www.w3.org/2000/svg" xmlns:xlink="http://www.w3.org/1999/xlink" viewBox="0 0 121.05 180.58"><defs><style>.cls-1{fill:url(#Dégradé_sans_nom_11);}.cls-2{fill:url(#Dégradé_sans_nom_11-2);}.cls-3{fill:url(#Dégradé_sans_nom_11-3);}</style><linearGradient id="Dégradé_sans_nom_11" x1="284.05" y1="396.25" x2="123.26" y2="279.35" gradientUnits="userSpaceOnUse"><stop offset="0"/><stop offset="1" stop-color="#ffb32f"/></linearGradient><linearGradient id="Dégradé_sans_nom_11-2" x1="313.75" y1="355.41" x2="152.95" y2="238.5" xlink:href="#Dégradé_sans_nom_11"/><linearGradient id="Dégradé_sans_nom_11-3" x1="-4.98" y1="284.82" x2="143.34" y2="187.32" xlink:href="#Dégradé_sans_nom_11"/></defs><title>left</title><path class="cls-1" d="M148.22,308.81A15.25,15.25,0,0,1,152.31,320c-.61,11.63-5.71,33.3-36.07,26.85a22.38,22.38,0,0,1-11.35-6.25C91,326.37,47.49,282.1,36.77,271.18a17.81,17.81,0,0,1-4.67-8.35,29.8,29.8,0,0,1,.41-15.44,17.76,17.76,0,0,1,4.63-7.74l57.28-56.22C87,196.86,84.33,208.67,84.33,218.68a53.35,53.35,0,0,0,14.53,36.94c.41.42.65.63.65.63Z" transform="translate(-31.28 -167.42)"/><path class="cls-2" d="M149.81,193.44a21.68,21.68,0,0,1-6,16l-44.33,46.8s-.24-.21-.65-.63a53.35,53.35,0,0,1-14.53-36.94c0-10,2.63-21.82,10.09-35.25l11.48-11.26a15.4,15.4,0,0,1,8.79-4.28C125.43,166.46,148.41,166.62,149.81,193.44Z" transform="translate(-31.28 -167.42)"/><path class="cls-3" d="M149.81,193.44a21.68,21.68,0,0,1-6,16l-44.33,46.8s-.24-.21-.65-.63a53.35,53.35,0,0,1-14.53-36.94c0-10,2.63-21.82,10.09-35.25l11.48-11.26a15.4,15.4,0,0,1,8.79-4.28C125.43,166.46,148.41,166.62,149.81,193.44Z" transform="translate(-31.28 -167.42)"/></svg>