<svg xmlns="http://www.w3.org/2000/svg" xmlns:xlink="http://www.w3.org/1999/xlink" viewBox="0 0 438.05 180.58"><defs><style>.cls-1{fill:url(#Dégradé_sans_nom_11);}.cls-2{fill:url(#Dégradé_sans_nom_11-2);}.cls-3{fill:url(#Dégradé_sans_nom_11-3);}.cls-4{fill:url(#Dégradé_sans_nom_11-4);}.cls-5{fill:url(#Dégradé_sans_nom_11-5);}.cls-6{fill:url(#Dégradé_sans_nom_11-6);}.cls-7{fill:#ffb32f;}.cls-8{fill:url(#Dégradé_sans_nom_12);}</style><linearGradient id="Dégradé_sans_nom_11" x1="284.05" y1="396.25" x2="123.26" y2="279.35" gradientUnits="userSpaceOnUse"><stop offset="0"/><stop offset="1" stop-color="#ffb32f"/></linearGradient><linearGradient id="Dégradé_sans_nom_11-2" x1="313.75" y1="355.41" x2="152.95" y2="238.5" xlink:href="#Dégradé_sans_nom_11"/><linearGradient id="Dégradé_sans_nom_11-3" x1="-4.98" y1="284.82" x2="143.34" y2="187.32" xlink:href="#Dégradé_sans_nom_11"/><linearGradient id="Dégradé_sans_nom_11-4" x1="216.55" y1="119.18" x2="377.34" y2="236.08" xlink:href="#Dégradé_sans_nom_11"/><linearGradient id="Dégradé_sans_nom_11-5" x1="186.88" y1="160.04" x2="347.66" y2="276.92" xlink:href="#Dégradé_sans_nom_11"/><linearGradient id="Dégradé_sans_nom_11-6" x1="505.57" y1="230.61" x2="357.26" y2="328.09" xlink:href="#Dégradé_sans_nom_11"/><radialGradient id="Dégradé_sans_nom_12" cx="239.1" cy="498.16" r="0.77" xlink:href="#Dégradé_sans_nom_11"/></defs><title>logo</title><g id="Calque_2" data-name="Calque 2"><path class="cls-1" d="M148.22,308.81A15.25,15.25,0,0,1,152.31,320c-.61,11.63-5.71,33.3-36.07,26.85a22.38,22.38,0,0,1-11.35-6.25C91,326.37,47.49,282.1,36.77,271.18a17.81,17.81,0,0,1-4.67-8.35,29.8,29.8,0,0,1,.41-15.44,17.76,17.76,0,0,1,4.63-7.74l57.28-56.22C87,196.86,84.33,208.67,84.33,218.68a53.35,53.35,0,0,0,14.53,36.94c.41.42.65.63.65.63Z" transform="translate(-31.28 -167.42)"/><path class="cls-2" d="M149.81,193.44a21.68,21.68,0,0,1-6,16l-44.33,46.8s-.24-.21-.65-.63a53.35,53.35,0,0,1-14.53-36.94c0-10,2.63-21.82,10.09-35.25l11.48-11.26a15.4,15.4,0,0,1,8.79-4.28C125.43,166.46,148.41,166.62,149.81,193.44Z" transform="translate(-31.28 -167.42)"/><path class="cls-3" d="M149.81,193.44a21.68,21.68,0,0,1-6,16l-44.33,46.8s-.24-.21-.65-.63a53.35,53.35,0,0,1-14.53-36.94c0-10,2.63-21.82,10.09-35.25l11.48-11.26a15.4,15.4,0,0,1,8.79-4.28C125.43,166.46,148.41,166.62,149.81,193.44Z" transform="translate(-31.28 -167.42)"/></g><g id="Calque_3" data-name="Calque 3"><path class="cls-4" d="M352.38,206.61a15.25,15.25,0,0,1-4.08-11.16c.61-11.63,5.71-33.3,36.07-26.85a22.39,22.39,0,0,1,11.34,6.25c13.93,14.2,57.4,58.47,68.13,69.39a18.12,18.12,0,0,1,4.67,8.35A30,30,0,0,1,468.1,268a17.86,17.86,0,0,1-4.63,7.74L406.16,332c7.47-13.43,10.11-25.25,10.11-35.26a53.35,53.35,0,0,0-14.53-36.94c-.42-.42-.65-.63-.65-.63Z" transform="translate(-31.28 -167.42)"/><path class="cls-5" d="M350.8,322a21.6,21.6,0,0,1,6-16l44.32-46.8s.23.21.65.63a53.35,53.35,0,0,1,14.53,36.94c0,10-2.64,21.83-10.11,35.26l-11.45,11.25a15.49,15.49,0,0,1-8.79,4.28C375.17,349,352.2,348.8,350.8,322Z" transform="translate(-31.28 -167.42)"/><path class="cls-6" d="M350.8,322a21.6,21.6,0,0,1,6-16l44.32-46.8s.23.21.65.63a53.35,53.35,0,0,1,14.53,36.94c0,10-2.64,21.83-10.11,35.26l-11.45,11.25a15.49,15.49,0,0,1-8.79,4.28C375.17,349,352.2,348.8,350.8,322Z" transform="translate(-31.28 -167.42)"/></g><g id="Calque_4" data-name="Calque 4"><path class="cls-7" d="M223.26,222.75l20.1,33.33L204,320.71H163.79ZM335.58,321H295.36L287,307.21l-57.45-95.09,20.1-33Z" transform="translate(-31.28 -167.42)"/><path class="cls-8" d="M223.26,222.75l20.1,33.33L204,320.71H163.79ZM335.58,321H295.36L287,307.21l-57.45-95.09,20.1-33Z" transform="translate(-31.28 -167.42)"/></g></svg>