<svg id="Calque_3" data-name="Calque 3" xmlns="http://www.w3.org/2000/svg" xmlns:xlink="http://www.w3.org/1999/xlink" viewBox="0 0 121.04 180.58"><defs><style>.cls-1{fill:url(#Dégradé_sans_nom_11);}.cls-2{fill:url(#Dégradé_sans_nom_11-2);}.cls-3{fill:url(#Dégradé_sans_nom_11-3);}</style><linearGradient id="Dégradé_sans_nom_11" x1="216.55" y1="119.18" x2="377.34" y2="236.08" gradientUnits="userSpaceOnUse"><stop offset="0"/><stop offset="1" stop-color="#ffb32f"/></linearGradient><linearGradient id="Dégradé_sans_nom_11-2" x1="186.88" y1="160.04" x2="347.66" y2="276.92" xlink:href="#Dégradé_sans_nom_11"/><linearGradient id="Dégradé_sans_nom_11-3" x1="505.57" y1="230.61" x2="357.26" y2="328.09" xlink:href="#Dégradé_sans_nom_11"/></defs><title>right</title><path class="cls-1" d="M352.38,206.61a15.25,15.25,0,0,1-4.08-11.16c.61-11.63,5.71-33.3,36.07-26.85a22.39,22.39,0,0,1,11.34,6.25c13.93,14.2,57.4,58.47,68.13,69.39a18.12,18.12,0,0,1,4.67,8.35A30,30,0,0,1,468.1,268a17.86,17.86,0,0,1-4.63,7.74L406.16,332c7.47-13.43,10.11-25.25,10.11-35.26a53.35,53.35,0,0,0-14.53-36.94c-.42-.42-.65-.63-.65-.63Z" transform="translate(-348.28 -167.43)"/><path class="cls-2" d="M350.8,322a21.6,21.6,0,0,1,6-16l44.32-46.8s.23.21.65.63a53.35,53.35,0,0,1,14.53,36.94c0,10-2.64,21.83-10.11,35.26l-11.45,11.25a15.49,15.49,0,0,1-8.79,4.28C375.17,349,352.2,348.8,350.8,322Z" transform="translate(-348.28 -167.43)"/><path class="cls-3" d="M350.8,322a21.6,21.6,0,0,1,6-16l44.32-46.8s.23.21.65.63a53.35,53.35,0,0,1,14.53,36.94c0,10-2.64,21.83-10.11,35.26l-11.45,11.25a15.49,15.49,0,0,1-8.79,4.28C375.17,349,352.2,348.8,350.8,322Z" transform="translate(-348.28 -167.43)"/></svg>